<svg xmlns="http://www.w3.org/2000/svg" version="1.1" xmlns:xlink="http://www.w3.org/1999/xlink" xmlns:svgjs="http://svgjs.com/svgjs" width="1440" height="560" preserveAspectRatio="none" viewBox="0 0 1440 560"><g mask="url(&quot;#SvgjsMask1054&quot;)" fill="none"><rect width="1440" height="560" x="0" y="0" fill="rgba(0, 0, 0, 1)"></rect><path d="M337 149L336 466" stroke-width="8" stroke="url(#SvgjsLinearGradient1055)" stroke-linecap="round" class="Up"></path><path d="M1344 478L1343 198" stroke-width="10" stroke="url(#SvgjsLinearGradient1055)" stroke-linecap="round" class="Up"></path><path d="M1215 73L1214 301" stroke-width="6" stroke="url(#SvgjsLinearGradient1056)" stroke-linecap="round" class="Down"></path><path d="M841 521L840 732" stroke-width="8" stroke="url(#SvgjsLinearGradient1055)" stroke-linecap="round" class="Up"></path><path d="M1137 427L1136 651" stroke-width="8" stroke="url(#SvgjsLinearGradient1055)" stroke-linecap="round" class="Up"></path><path d="M1227 339L1226 582" stroke-width="6" stroke="url(#SvgjsLinearGradient1056)" stroke-linecap="round" class="Down"></path><path d="M157 43L156 -197" stroke-width="8" stroke="url(#SvgjsLinearGradient1055)" stroke-linecap="round" class="Up"></path><path d="M577 242L576 462" stroke-width="8" stroke="url(#SvgjsLinearGradient1056)" stroke-linecap="round" class="Down"></path><path d="M374 417L373 665" stroke-width="8" stroke="url(#SvgjsLinearGradient1056)" stroke-linecap="round" class="Down"></path><path d="M1174 442L1173 860" stroke-width="10" stroke="url(#SvgjsLinearGradient1056)" stroke-linecap="round" class="Down"></path><path d="M1090 191L1089 534" stroke-width="8" stroke="url(#SvgjsLinearGradient1055)" stroke-linecap="round" class="Up"></path><path d="M751 225L750 -13" stroke-width="10" stroke="url(#SvgjsLinearGradient1056)" stroke-linecap="round" class="Down"></path><path d="M605 134L604 -251" stroke-width="8" stroke="url(#SvgjsLinearGradient1056)" stroke-linecap="round" class="Down"></path><path d="M633 4L632 160" stroke-width="6" stroke="url(#SvgjsLinearGradient1055)" stroke-linecap="round" class="Up"></path><path d="M360 38L359 -172" stroke-width="6" stroke="url(#SvgjsLinearGradient1056)" stroke-linecap="round" class="Down"></path><path d="M106 154L105 462" stroke-width="8" stroke="url(#SvgjsLinearGradient1056)" stroke-linecap="round" class="Down"></path><path d="M169 549L168 812" stroke-width="8" stroke="url(#SvgjsLinearGradient1056)" stroke-linecap="round" class="Down"></path><path d="M1039 147L1038 557" stroke-width="6" stroke="url(#SvgjsLinearGradient1055)" stroke-linecap="round" class="Up"></path><path d="M661 143L660 453" stroke-width="6" stroke="url(#SvgjsLinearGradient1056)" stroke-linecap="round" class="Down"></path><path d="M647 340L646 733" stroke-width="10" stroke="url(#SvgjsLinearGradient1056)" stroke-linecap="round" class="Down"></path><path d="M966 320L965 -87" stroke-width="6" stroke="url(#SvgjsLinearGradient1055)" stroke-linecap="round" class="Up"></path><path d="M131 123L130 432" stroke-width="8" stroke="url(#SvgjsLinearGradient1055)" stroke-linecap="round" class="Up"></path><path d="M869 500L868 796" stroke-width="8" stroke="url(#SvgjsLinearGradient1056)" stroke-linecap="round" class="Down"></path><path d="M890 421L889 614" stroke-width="8" stroke="url(#SvgjsLinearGradient1056)" stroke-linecap="round" class="Down"></path><path d="M958 239L957 70" stroke-width="8" stroke="url(#SvgjsLinearGradient1055)" stroke-linecap="round" class="Up"></path><path d="M752 503L751 282" stroke-width="6" stroke="url(#SvgjsLinearGradient1056)" stroke-linecap="round" class="Down"></path><path d="M611 316L610 5" stroke-width="8" stroke="url(#SvgjsLinearGradient1055)" stroke-linecap="round" class="Up"></path><path d="M352 52L351 -241" stroke-width="10" stroke="url(#SvgjsLinearGradient1055)" stroke-linecap="round" class="Up"></path><path d="M882 473L881 644" stroke-width="8" stroke="url(#SvgjsLinearGradient1056)" stroke-linecap="round" class="Down"></path><path d="M712 353L711 552" stroke-width="6" stroke="url(#SvgjsLinearGradient1056)" stroke-linecap="round" class="Down"></path><path d="M904 547L903 374" stroke-width="6" stroke="url(#SvgjsLinearGradient1056)" stroke-linecap="round" class="Down"></path><path d="M1352 313L1351 482" stroke-width="6" stroke="url(#SvgjsLinearGradient1055)" stroke-linecap="round" class="Up"></path><path d="M804 66L803 482" stroke-width="6" stroke="url(#SvgjsLinearGradient1055)" stroke-linecap="round" class="Up"></path><path d="M118 127L117 -243" stroke-width="6" stroke="url(#SvgjsLinearGradient1055)" stroke-linecap="round" class="Up"></path><path d="M126 446L125 673" stroke-width="8" stroke="url(#SvgjsLinearGradient1056)" stroke-linecap="round" class="Down"></path><path d="M1168 139L1167 296" stroke-width="10" stroke="url(#SvgjsLinearGradient1055)" stroke-linecap="round" class="Up"></path></g><defs><mask id="SvgjsMask1054"><rect width="1440" height="560" fill="#ffffff"></rect></mask><linearGradient x1="0%" y1="100%" x2="0%" y2="0%" id="SvgjsLinearGradient1055"><stop stop-color="rgba(28, 83, 142, 0)" offset="0"></stop><stop stop-color="#1c538e" offset="1"></stop></linearGradient><linearGradient x1="0%" y1="0%" x2="0%" y2="100%" id="SvgjsLinearGradient1056"><stop stop-color="rgba(28, 83, 142, 0)" offset="0"></stop><stop stop-color="#1c538e" offset="1"></stop></linearGradient></defs></svg>